<svg width="32" height="32" viewBox="0 0 32 32" fill="none" xmlns="http://www.w3.org/2000/svg">
<path d="M25.6 13.7301V27.3001C25.6 27.6875 25.5237 28.0711 25.3754 28.429C25.2272 28.7869 25.0099 29.1121 24.736 29.386C24.462 29.66 24.1368 29.8773 23.7789 30.0255C23.421 30.1738 23.0374 30.2501 22.65 30.2501H4.95C4.16761 30.2501 3.41727 29.9393 2.86403 29.386C2.3108 28.8328 2 28.0825 2 27.3001V9.60009C2 8.8177 2.3108 8.06735 2.86403 7.51412C3.41727 6.96089 4.16761 6.65009 4.95 6.65009H17.3016" stroke="#7BADE7" stroke-width="2.5" stroke-linecap="round" stroke-linejoin="round"/>
<path d="M31.2005 1.13715C31.0928 1.01874 30.9621 0.923403 30.8165 0.856909C30.6708 0.790416 30.5132 0.754144 30.3531 0.750283C30.1931 0.746423 30.0339 0.775055 29.8852 0.83445C29.7365 0.893845 29.6014 0.982769 29.4881 1.09585L28.5758 2.00371C28.4652 2.11435 28.4031 2.26436 28.4031 2.42077C28.4031 2.57718 28.4652 2.72719 28.5758 2.83782L29.4121 3.67267C29.4669 3.72775 29.5321 3.77146 29.6038 3.80128C29.6756 3.8311 29.7526 3.84645 29.8303 3.84645C29.908 3.84645 29.9849 3.8311 30.0567 3.80128C30.1284 3.77146 30.1936 3.72775 30.2484 3.67267L31.1378 2.78767C31.5877 2.33854 31.6298 1.60694 31.2005 1.13715ZM26.7313 3.84746L13.4179 17.1372C13.3372 17.2176 13.2785 17.3174 13.2476 17.427L12.6318 19.2612C12.617 19.311 12.616 19.3638 12.6287 19.4141C12.6415 19.4644 12.6676 19.5104 12.7043 19.5471C12.741 19.5838 12.787 19.6099 12.8373 19.6227C12.8876 19.6354 12.9404 19.6344 12.9902 19.6196L14.8229 19.0038C14.9325 18.9728 15.0323 18.9142 15.1127 18.8335L28.4025 5.51863C28.5254 5.39437 28.5944 5.22661 28.5944 5.0518C28.5944 4.87698 28.5254 4.70923 28.4025 4.58496L27.6686 3.84746C27.5442 3.72339 27.3757 3.65371 27.2 3.65371C27.0243 3.65371 26.8557 3.72339 26.7313 3.84746Z" fill="#7BADE7"/>
</svg>
