<svg width="21" height="22" viewBox="0 0 21 22" fill="none" xmlns="http://www.w3.org/2000/svg">
<path d="M9.45825 16.2083H11.5416V9.95825H9.45825V16.2083ZM10.4999 7.87492C10.7951 7.87492 11.0426 7.77492 11.2426 7.57492C11.4426 7.37492 11.5423 7.1277 11.5416 6.83325C11.5416 6.53811 11.4416 6.29089 11.2416 6.09159C11.0416 5.89228 10.7944 5.79228 10.4999 5.79159C10.2048 5.79159 9.95756 5.89159 9.75825 6.09159C9.55895 6.29159 9.45895 6.53881 9.45825 6.83325C9.45825 7.12839 9.55825 7.37596 9.75825 7.57596C9.95825 7.77596 10.2055 7.87561 10.4999 7.87492ZM10.4999 21.4166C9.05895 21.4166 7.70478 21.143 6.43742 20.5958C5.17006 20.0485 4.06763 19.3065 3.13013 18.3697C2.19263 17.4322 1.45061 16.3298 0.904085 15.0624C0.357558 13.7951 0.0839464 12.4409 0.083252 10.9999C0.083252 9.55895 0.356863 8.20478 0.904085 6.93742C1.45131 5.67006 2.19332 4.56763 3.13013 3.63013C4.06763 2.69263 5.17006 1.95061 6.43742 1.40409C7.70478 0.857558 9.05895 0.583946 10.4999 0.583252C11.9409 0.583252 13.2951 0.856863 14.5624 1.40409C15.8298 1.95131 16.9322 2.69332 17.8697 3.63013C18.8072 4.56763 19.5496 5.67006 20.0968 6.93742C20.644 8.20478 20.9173 9.55895 20.9166 10.9999C20.9166 12.4409 20.643 13.7951 20.0958 15.0624C19.5485 16.3298 18.8065 17.4322 17.8697 18.3697C16.9322 19.3072 15.8298 20.0496 14.5624 20.5968C13.2951 21.144 11.9409 21.4173 10.4999 21.4166Z" fill="#3C7CC6"/>
</svg>
