<svg width="42" height="42" viewBox="0 0 42 42" fill="none" xmlns="http://www.w3.org/2000/svg">
<path d="M20.8957 33.5C21.6248 33.5 22.2415 33.2479 22.7457 32.7437C23.2498 32.2395 23.5012 31.6236 23.4998 30.8958C23.4998 30.1666 23.2485 29.55 22.7457 29.0458C22.2429 28.5416 21.6262 28.2902 20.8957 28.2916C20.1665 28.2916 19.5505 28.5437 19.0478 29.0479C18.545 29.552 18.2929 30.168 18.2915 30.8958C18.2915 31.625 18.5436 32.2416 19.0478 32.7458C19.5519 33.25 20.1679 33.5014 20.8957 33.5ZM19.0207 25.4791H22.8748C22.8748 24.3333 23.0054 23.4305 23.2665 22.7708C23.5276 22.1111 24.2651 21.2083 25.479 20.0625C26.3818 19.1597 27.0936 18.3 27.6144 17.4833C28.1353 16.6666 28.3957 15.6861 28.3957 14.5416C28.3957 12.5972 27.6839 11.1041 26.2603 10.0625C24.8366 9.02079 23.1526 8.49996 21.2082 8.49996C19.229 8.49996 17.6234 9.02079 16.3915 10.0625C15.1596 11.1041 14.2998 12.3541 13.8123 13.8125L17.2498 15.1666C17.4234 14.5416 17.8144 13.8645 18.4228 13.1354C19.0311 12.4062 19.9596 12.0416 21.2082 12.0416C22.3193 12.0416 23.1526 12.3458 23.7082 12.9541C24.2637 13.5625 24.5415 14.2305 24.5415 14.9583C24.5415 15.6527 24.3332 16.3041 23.9165 16.9125C23.4998 17.5208 22.979 18.0847 22.354 18.6041C20.8262 19.9583 19.8887 20.9826 19.5415 21.677C19.1943 22.3715 19.0207 23.6388 19.0207 25.4791ZM20.9998 41.8333C18.1179 41.8333 15.4096 41.2868 12.8748 40.1937C10.3401 39.1007 8.13525 37.6159 6.26025 35.7395C4.38525 33.8645 2.90123 31.6597 1.80817 29.125C0.715115 26.5902 0.167893 23.8819 0.166504 21C0.166504 18.118 0.713726 15.4097 1.80817 12.875C2.90262 10.3402 4.38664 8.13538 6.26025 6.26038C8.13525 4.38538 10.3401 2.90135 12.8748 1.80829C15.4096 0.715237 18.1179 0.168015 20.9998 0.166626C23.8818 0.166626 26.5901 0.713848 29.1248 1.80829C31.6596 2.90274 33.8644 4.38677 35.7394 6.26038C37.6144 8.13538 39.0991 10.3402 40.1936 12.875C41.288 15.4097 41.8346 18.118 41.8332 21C41.8332 23.8819 41.2859 26.5902 40.1915 29.125C39.0971 31.6597 37.613 33.8645 35.7394 35.7395C33.8644 37.6145 31.6596 39.0993 29.1248 40.1937C26.5901 41.2882 23.8818 41.8347 20.9998 41.8333Z" fill="#3C7CC6"/>
</svg>
