<svg width="14" height="15" viewBox="0 0 14 15" fill="none" xmlns="http://www.w3.org/2000/svg">
<path d="M13.3002 1.21C13.2077 1.1173 13.0978 1.04375 12.9768 0.99357C12.8559 0.943388 12.7262 0.917558 12.5952 0.917558C12.4643 0.917558 12.3346 0.943388 12.2136 0.99357C12.0926 1.04375 11.9827 1.1173 11.8902 1.21L7.00022 6.09L2.11022 1.2C2.01764 1.10742 1.90773 1.03398 1.78677 0.983875C1.6658 0.93377 1.53615 0.907982 1.40522 0.907982C1.27429 0.907982 1.14464 0.93377 1.02368 0.983875C0.902716 1.03398 0.792805 1.10742 0.700223 1.2C0.607642 1.29258 0.534201 1.40249 0.484097 1.52346C0.433992 1.64442 0.408203 1.77407 0.408203 1.905C0.408203 2.03593 0.433992 2.16558 0.484097 2.28655C0.534202 2.40751 0.607642 2.51742 0.700223 2.61L5.59022 7.5L0.700223 12.39C0.607642 12.4826 0.534201 12.5925 0.484097 12.7135C0.433992 12.8344 0.408203 12.9641 0.408203 13.095C0.408203 13.2259 0.433992 13.3556 0.484097 13.4765C0.534201 13.5975 0.607642 13.7074 0.700223 13.8C0.792805 13.8926 0.902716 13.966 1.02368 14.0161C1.14464 14.0662 1.27429 14.092 1.40522 14.092C1.53615 14.092 1.6658 14.0662 1.78677 14.0161C1.90773 13.966 2.01764 13.8926 2.11022 13.8L7.00022 8.91L11.8902 13.8C11.9828 13.8926 12.0927 13.966 12.2137 14.0161C12.3346 14.0662 12.4643 14.092 12.5952 14.092C12.7262 14.092 12.8558 14.0662 12.9768 14.0161C13.0977 13.966 13.2076 13.8926 13.3002 13.8C13.3928 13.7074 13.4662 13.5975 13.5163 13.4765C13.5665 13.3556 13.5922 13.2259 13.5922 13.095C13.5922 12.9641 13.5665 12.8344 13.5163 12.7135C13.4662 12.5925 13.3928 12.4826 13.3002 12.39L8.41022 7.5L13.3002 2.61C13.6802 2.23 13.6802 1.59 13.3002 1.21Z" fill="#5477A1"/>
</svg>
